<svg  viewBox="0 0 196 30" fill="none" xmlns="http://www.w3.org/2000/svg">
<path d="M14.1458 28.3526H0.683594V1.64771H27.6965V12.2055L30.4421 14.8671H40.9816V28.1752H27.6965V17.7061L25.0395 15.1332H14.1458V28.3526Z" fill="white"/>
<path d="M53.602 22.6853H50.1376V7.91821H54.1L68.0876 18.9394V7.91821H71.552V22.6853H67.6545L53.602 11.5342V22.6853ZM73.8523 17.2072C73.8523 13.2231 76.8836 11.4476 83.2928 11.4476C89.7236 11.4476 92.755 13.2231 92.755 17.2072C92.755 21.1696 89.7236 22.9451 83.2928 22.9451C76.8836 22.9451 73.8523 21.1696 73.8523 17.2072ZM77.0785 17.2072C77.0785 19.3508 78.5509 20.2169 83.2928 20.2169C88.0564 20.2169 89.5288 19.3508 89.5288 17.2072C89.5288 15.0636 88.0564 14.1975 83.2928 14.1975C78.5509 14.1975 77.0785 15.0636 77.0785 17.2072ZM108.669 6.44583H111.917V22.6853H109.081L108.821 21.018C106.634 22.0141 104.036 22.9018 101.329 22.9018C97.0635 22.9018 94.6168 21.3645 94.6168 17.3371C94.6168 12.9849 97.8647 11.5342 102.628 11.5342C104.88 11.5342 106.937 11.794 108.669 12.0972V6.44583ZM97.843 17.2721C97.843 19.3724 99.0123 20.2169 101.827 20.2169C103.971 20.2169 106.309 19.6756 108.669 18.9177V14.5872C106.786 14.349 104.425 14.1542 102.412 14.1542C99.4886 14.1542 97.843 14.9986 97.843 17.2721ZM123.399 20.3901C126.625 20.3901 129.18 19.9787 130.371 19.7622L131.042 22.1223C129.094 22.5987 125.932 22.9668 123.118 22.9668C117.033 22.9668 114.218 21.3645 114.218 17.2072C114.218 13.1148 117.336 11.4692 122.814 11.4692C127.903 11.4692 131.346 12.79 131.346 16.5143C131.346 16.969 131.302 17.7268 131.259 17.9867H117.401C117.748 19.9571 119.415 20.3901 123.399 20.3901ZM122.706 13.6778C119.22 13.6778 117.704 14.3274 117.401 16.2545H128.163C127.946 14.479 126.734 13.6778 122.706 13.6778ZM145.072 22.9668C136.866 22.9668 133.207 20.6066 133.207 15.3018C133.207 9.99686 136.866 7.63672 145.072 7.63672C153.279 7.63672 156.938 9.99686 156.938 15.3018C156.938 20.6066 153.279 22.9668 145.072 22.9668ZM145.072 19.9787C151.417 19.9787 153.43 18.6146 153.43 15.3018C153.43 11.9889 151.417 10.6248 145.072 10.6248C138.728 10.6248 136.671 11.9889 136.671 15.3018C136.671 18.6146 138.728 19.9787 145.072 19.9787ZM162.473 26.691H159.225V11.7507H162.062L162.322 13.418C164.53 12.422 167.237 11.5342 170.03 11.5342C174.122 11.5342 176.526 13.1365 176.526 17.0989C176.526 21.3861 173.386 22.9018 168.623 22.9018C166.436 22.9018 164.27 22.642 162.473 22.3172V26.691ZM169.445 14.2191C167.41 14.2191 164.942 14.7604 162.473 15.5399V19.8488C164.379 20.0653 166.76 20.2819 168.796 20.2819C171.719 20.2819 173.3 19.4374 173.3 17.1639C173.3 15.0852 172.195 14.2191 169.445 14.2191ZM194.374 19.6972C194.374 22.2523 192.165 22.9668 186.838 22.9668C183.612 22.9668 180.538 22.5337 178.61 22.1007L179.152 19.9787C181.274 20.3685 184.197 20.7799 187.25 20.7799C190.411 20.7799 191.342 20.585 191.342 19.6756C191.342 18.7229 190.498 18.593 188.376 18.4414L183.222 18.1382C179.845 17.9434 178.394 17.0989 178.394 14.7388C178.394 12.0539 181.144 11.4476 186.362 11.4476C188.614 11.4476 191.775 11.794 193.616 12.0972L193.118 14.2408C190.779 13.851 188.159 13.6128 185.626 13.6128C182.421 13.6128 181.425 13.7861 181.425 14.7171C181.425 15.6265 182.205 15.7132 183.569 15.7998L188.83 16.1462C192.49 16.3627 194.374 17.1639 194.374 19.6972Z" fill="white"/>
</svg>
